PathFileType	4	(X/Y/Z)	Patient4_TMGait_0pt2_01_right_02.trc.trc
DataRate	CameraRate	NumFrames	NumMarkers	Units	OrigDataRate	OrigDataStartFrame	OrigNumFrames
43.750000000000	43.750000000000	5	33	mm	43.750000000000	36	       141
Frame#	Time	Sacral			L.Shoulder			Chest			R.Shoulder			Neck			R.ASIS			L.ASIS			R.Thigh.Superior			R.Thigh.Lateral			R.Thigh.Inferior			R.Patella			L.Thigh.Superior			L.Thigh.Lateral			L.Thigh.Inferior			L.Patella			L.Shank.Superior			L.Shank.Lateral			L.Shank.Inferior			R.Shank.Superior			R.Shank.Lateral			R.Shank.Inferior			R.Heel			R.Midfoot.Superior			R.Midfoot.Lateral			R.Toe			L.Heel			L.Midfoot.Lateral			L.Midfoot.Superior			L.Toe			L.Elbow			L.Wrist			R.Elbow			R.Wrist			
		X1	Y1	Z1	X2	Y2	Z2	X3	Y3	Z3	X4	Y4	Z4	X5	Y5	Z5	X6	Y6	Z6	X7	Y7	Z7	X8	Y8	Z8	X9	Y9	Z9	X10	Y10	Z10	X11	Y11	Z11	X12	Y12	Z12	X13	Y13	Z13	X14	Y14	Z14	X15	Y15	Z15	X16	Y16	Z16	X17	Y17	Z17	X18	Y18	Z18	X19	Y19	Z19	X20	Y20	Z20	X21	Y21	Z21	X22	Y22	Z22	X23	Y23	Z23	X24	Y24	Z24	X25	Y25	Z25	X26	Y26	Z26	X27	Y27	Z27	X28	Y28	Z28	X29	Y29	Z29	X30	Y30	Z30	X31	Y31	Z31	X32	Y32	Z32	X33	Y33	Z33	

36	3.060000000000	906.504940834671	1004.057916497624	497.260646441978	1103.234654555821	1433.111798622599	337.711553758110	1181.149165281303	1367.698136581793	512.729173596319	1070.975053579421	1440.972760543263	670.926158394056	1061.865519056742	1495.157582151553	491.465521346521	1125.840006701129	943.190422944770	639.179768013202	1137.407959650650	959.056041093054	364.274625230469	1181.326366013513	749.703819256368	605.213638586827	1109.316020093282	633.881727976025	664.776056120680	1190.426815684640	587.947399232806	584.460274887789	1198.158345181661	501.734046294108	591.399308907177	1131.364458818595	726.560916187942	387.017787010267	1016.937104299211	633.627466294201	314.354531734616	1072.322074554732	538.180111077720	377.913363994398	1053.873795574665	468.862900246246	383.456314573405	1010.653070774034	407.114437401542	370.391736037839	896.808679321322	320.644645504989	312.458355248284	916.594206687553	195.812530489646	375.583537701543	1176.873032560747	411.232746962370	600.190937756226	1113.772400915438	303.991316121067	665.312428544203	1161.370610596876	210.895708786535	602.926895689439	1035.244096720004	43.741171373839	578.598644622929	1207.684464945637	97.850463024542	609.741052858562	1120.579673296797	37.317609467972	650.436611227627	1328.297494021710	45.988585542526	634.081320085217	757.768117467231	61.849708008028	405.086352223408	833.789614877746	50.008203651158	328.356217120927	922.601773748675	101.405711559988	357.443462117243	1043.857512769888	37.503766205374	331.783177808634	1254.334397031185	1145.868921443644	185.465334636620	1510.664308344544	1095.563625250333	213.513655009508	948.704783931377	1117.520971904206	780.089694779724	973.013052157506	856.654528469392	796.128220767265	
37	3.082857142857	908.575490836259	1004.654835919968	503.817844689621	1103.594477884209	1433.082123793077	341.025547375704	1183.228318296039	1368.363028538880	515.536860413432	1074.350972946015	1441.948589034509	674.534133521015	1063.754337771090	1495.722703386032	494.884730101884	1128.983205002622	943.932574554018	644.142874604608	1138.322389656120	959.280982794030	369.165617639705	1182.809590949689	749.452890498538	609.530653820748	1109.929556832986	633.814152843989	668.606089618845	1190.408716658478	587.553590840726	587.944422548659	1197.401029593886	501.130722476118	594.239828394157	1132.900332642154	727.151184442609	391.066360963746	1018.279126640429	634.388348957048	318.485811385786	1074.589528657344	538.451314233710	380.869693744077	1056.359633705627	468.424892005711	385.656908888910	1011.555518809689	407.431363893147	372.506415633612	896.000961624656	323.070433609309	314.719612737911	914.857668664765	197.288204846866	376.386903433694	1175.328698978114	410.812578691677	602.442001544188	1111.466575119770	303.633457924873	666.856167024198	1158.182522518996	210.623525983519	603.842308918018	1030.937175615160	43.791031125114	578.722500985834	1203.407792115041	97.876003575868	609.973903075153	1116.261570392163	37.363109521612	650.565321018940	1324.002360751957	45.775447537670	634.254207026099	754.170930868088	65.378862435470	405.426315061702	829.925004210835	52.167264008147	328.619085422102	919.672543992193	102.157808428932	357.462168478167	1039.633924823379	37.343939227750	331.705408930390	1248.615444651523	1141.380426415064	189.038624638530	1504.056965567259	1084.928367629997	215.538137145798	956.173161839342	1118.387452725600	788.706583304366	986.559897415836	858.373068614245	806.542270859066	
38	3.105714285714	910.442714274529	1005.098476470007	510.162479445923	1103.559386779482	1432.975148243729	344.183631906206	1184.908212037648	1369.003520618778	518.182391469329	1077.265196295211	1442.834342826672	677.954810087932	1065.230045421957	1496.203844356824	498.125208040109	1131.883919370726	944.548422032452	648.943576808498	1139.059591851092	959.482446168383	373.923922602764	1184.079590621095	749.121828164685	613.691403645634	1110.279227182229	633.664364201068	672.288767825375	1190.150802534129	587.103478286328	591.322351232557	1196.332680012224	500.493574601529	597.010944921277	1134.607945650424	727.750085832902	395.016309666436	1020.001711318903	634.911817579414	322.523846243672	1077.406360406825	538.606567397506	383.765872766347	1059.451620078942	467.774526881242	387.712829191808	1012.930888214710	407.590762412696	374.521189079519	895.609542539394	325.471626517084	316.953571514358	913.423253708747	198.769153603503	377.168434737275	1173.531956962939	410.342158137660	604.655041746955	1108.906045071570	303.219161421201	668.338148676462	1154.856293124175	210.339242857956	604.766231135158	1026.554326633912	43.819360832898	578.821194631110	1199.046581027134	97.914594358958	610.197519016566	1111.860299071535	37.408252663426	650.694479616630	1319.609763969132	45.642252526938	634.418655886008	750.725592143574	69.110644331138	405.770571000612	826.154512958645	54.411003850904	328.869273456903	916.920786491647	102.878362628052	357.437779790682	1035.433888359382	37.241167503553	331.638562328727	1241.743517352207	1136.422216480505	192.711380377796	1495.803016462624	1072.451081097966	217.520236955527	963.909224644841	1118.959109211897	797.084375651398	1001.405468202150	860.107237174782	816.681384547115	
39	3.128571428571	912.117451256285	1005.381507952799	516.291482986028	1103.102820335729	1432.819929953444	347.225531688907	1186.177050032588	1369.617583647958	520.688152334822	1079.725295300246	1443.605522692545	681.233400380682	1066.267343787507	1496.599768157146	501.245190453373	1134.579012427078	945.053593670124	653.541624917523	1139.631891048143	959.673653494030	378.495550770513	1185.194486885322	748.726945189900	617.657505529564	1110.445979753999	633.447350308196	675.799646699294	1189.723199930889	586.608352931788	594.554547199442	1195.037680295975	499.824640251905	599.670015285886	1136.572828127104	728.356904919165	398.832446028214	1022.259912152651	635.155331597494	326.432997615564	1080.977998821597	538.628834045994	386.572917787737	1063.349159547587	466.889798853627	389.604277429440	1014.977074771940	407.556418853936	376.418299028110	895.816651436841	327.868799631525	319.131825611812	912.393357348884	200.270400454295	377.886385979952	1171.554397179212	409.821439179159	606.791993674079	1106.165391274180	302.759673239702	669.743256590419	1151.421634823817	210.030445878186	605.669318000132	1022.088181033923	43.824060547269	578.894313316525	1194.601398998729	97.947632003499	610.397662326416	1107.371333973445	37.449299522739	650.826245526871	1315.123132332463	45.566762330675	634.565123778768	747.501275527180	73.185500273088	406.079505164086	822.522441348397	56.817799798290	329.083117989247	914.396216031465	103.578823491541	357.344151139960	1031.244413772256	37.172586010792	331.589189169147	1233.691995645399	1131.083102125508	196.567053714404	1485.666659137900	1058.110565705350	219.535198707727	971.986820119009	1119.177367341465	805.165592073748	1017.607292239321	861.872200885676	826.464962664777	
40	3.151428571429	913.612189713465	1005.502915599889	522.212992962659	1102.202003447627	1432.642851584843	350.185354614498	1187.032762832337	1370.205935770081	523.069414921923	1081.759233256979	1444.251037230394	684.409301852113	1066.855513064609	1496.914294422828	504.297274953618	1137.103842943350	945.469571322646	657.904709803632	1140.051508479258	959.870116518456	382.836293504253	1186.202278464702	748.286618132123	621.398901024304	1110.501007212038	633.176719321438	679.120564271073	1189.184641693405	586.079941616864	597.607731651076	1193.594017212643	499.127471835046	602.180827604877	1138.875421462480	728.986487342607	402.483483718485	1025.204092430958	635.108303746044	330.170226901246	1085.493713454616	538.528461825624	389.256358284348	1068.239891020013	465.783936307200	391.307320427185	1017.890407556665	407.320691969410	378.174997537155	896.814990388104	330.308591280744	321.219416731641	911.880182903648	201.839673073863	378.496278601398	1169.461477486648	409.255119838133	608.818081663993	1103.317614506934	302.268890069025	671.057915365692	1147.908734761531	209.691340359023	606.524545239356	1017.545916130600	43.807207024063	578.943124038154	1190.082891785860	97.965238283533	610.566231798934	1102.805259562747	37.483230488008	650.958894580342	1310.557644863650	45.531977350566	634.689216203882	744.593182787521	77.802547976826	406.319013224150	819.085655188553	59.514494998955	329.241977626113	912.156510016485	104.295383576813	357.159219785839	1027.041882909482	37.103675156570	331.566381620188	1224.461576396186	1125.466789250002	200.684886882253	1473.397804009087	1041.951193778445	221.661242599251	980.484520541432	1119.012841256619	812.894510904451	1035.195173382956	863.715048845898	835.791676972522	
